<mxfile host="Electron" modified="2023-10-08T09:29:19.735Z" agent="Mozilla/5.0 (Windows NT 10.0; Win64; x64) AppleWebKit/537.36 (KHTML, like Gecko) draw.io/22.0.2 Chrome/114.0.5735.289 Electron/25.8.4 Safari/537.36" etag="QVZ9sFv244uqzpFmi3dh" version="22.0.2" type="device">
  <diagram name="Страница — 1" id="4AF0Bc-Jt5nDYyQmDvnp">
    <mxGraphModel dx="3765" dy="1188" grid="1" gridSize="10" guides="1" tooltips="1" connect="1" arrows="1" fold="1" page="1" pageScale="1" pageWidth="827" pageHeight="1169" math="0" shadow="0">
      <root>
        <mxCell id="0" />
        <mxCell id="1" parent="0" />
        <mxCell id="AJG7Gfzm2Z9j25c4P1MB-31" style="rounded=0;orthogonalLoop=1;jettySize=auto;html=1;dashed=1;dashPattern=12 12;strokeColor=default;" parent="1" source="AJG7Gfzm2Z9j25c4P1MB-7" target="AJG7Gfzm2Z9j25c4P1MB-12" edge="1">
          <mxGeometry relative="1" as="geometry" />
        </mxCell>
        <mxCell id="AJG7Gfzm2Z9j25c4P1MB-46" value="Отправить оповещение пользователю или группе пользователей,&lt;br&gt;изменить настройки пользователя" style="edgeLabel;html=1;align=center;verticalAlign=middle;resizable=0;points=[];" parent="AJG7Gfzm2Z9j25c4P1MB-31" vertex="1" connectable="0">
          <mxGeometry x="-0.4933" y="-3" relative="1" as="geometry">
            <mxPoint as="offset" />
          </mxGeometry>
        </mxCell>
        <object c4Name="Существующие компоненты системы" c4Type="Software System" c4Description="которые хотят отправить оповещение" label="&lt;font style=&quot;font-size: 16px&quot;&gt;&lt;b&gt;%c4Name%&lt;/b&gt;&lt;/font&gt;&lt;div&gt;[%c4Type%]&lt;/div&gt;&lt;br&gt;&lt;div&gt;&lt;font style=&quot;font-size: 11px&quot;&gt;&lt;font color=&quot;#cccccc&quot;&gt;%c4Description%&lt;/font&gt;&lt;/div&gt;" placeholders="1" id="AJG7Gfzm2Z9j25c4P1MB-7">
          <mxCell style="rounded=1;whiteSpace=wrap;html=1;labelBackgroundColor=none;fillColor=#8C8496;fontColor=#ffffff;align=center;arcSize=10;strokeColor=#736782;metaEdit=1;resizable=0;points=[[0.25,0,0],[0.5,0,0],[0.75,0,0],[1,0.25,0],[1,0.5,0],[1,0.75,0],[0.75,1,0],[0.5,1,0],[0.25,1,0],[0,0.75,0],[0,0.5,0],[0,0.25,0]];" parent="1" vertex="1">
            <mxGeometry x="310" y="330" width="240" height="120" as="geometry" />
          </mxCell>
        </object>
        <object placeholders="1" c4Name="Пользователи" c4Type="Person" c4Description="Получятели оповещений" label="&lt;font style=&quot;font-size: 16px&quot;&gt;&lt;b&gt;%c4Name%&lt;/b&gt;&lt;/font&gt;&lt;div&gt;[%c4Type%]&lt;/div&gt;&lt;br&gt;&lt;div&gt;&lt;font style=&quot;font-size: 11px&quot;&gt;&lt;font color=&quot;#cccccc&quot;&gt;%c4Description%&lt;/font&gt;&lt;/div&gt;" id="AJG7Gfzm2Z9j25c4P1MB-9">
          <mxCell style="html=1;fontSize=11;dashed=0;whiteSpace=wrap;fillColor=#083F75;strokeColor=#06315C;fontColor=#ffffff;shape=mxgraph.c4.person2;align=center;metaEdit=1;points=[[0.5,0,0],[1,0.5,0],[1,0.75,0],[0.75,1,0],[0.5,1,0],[0.25,1,0],[0,0.75,0],[0,0.5,0]];resizable=0;" parent="1" vertex="1">
            <mxGeometry x="330" y="1460" width="200" height="180" as="geometry" />
          </mxCell>
        </object>
        <mxCell id="AJG7Gfzm2Z9j25c4P1MB-20" style="edgeStyle=orthogonalEdgeStyle;rounded=0;orthogonalLoop=1;jettySize=auto;html=1;dashed=1;dashPattern=12 12;" parent="1" source="AJG7Gfzm2Z9j25c4P1MB-12" target="AJG7Gfzm2Z9j25c4P1MB-19" edge="1">
          <mxGeometry relative="1" as="geometry" />
        </mxCell>
        <mxCell id="AJG7Gfzm2Z9j25c4P1MB-32" value="Записывает сообщения, &lt;br&gt;которые нужно отправить,&lt;br&gt;записывает batch для мультиплекса" style="edgeLabel;html=1;align=center;verticalAlign=middle;resizable=0;points=[];" parent="AJG7Gfzm2Z9j25c4P1MB-20" vertex="1" connectable="0">
          <mxGeometry x="-0.3874" y="-1" relative="1" as="geometry">
            <mxPoint x="1" y="18" as="offset" />
          </mxGeometry>
        </mxCell>
        <object placeholders="1" c4Name="API подсистемы оповещений о событиях" c4Type="Container" c4Technology="SpringBoot" c4Description="Предоставляет API интерфейс для взаимодействия внешних систем" label="&lt;font style=&quot;font-size: 16px&quot;&gt;&lt;b&gt;%c4Name%&lt;/b&gt;&lt;/font&gt;&lt;div&gt;[%c4Type%: %c4Technology%]&lt;/div&gt;&lt;br&gt;&lt;div&gt;&lt;font style=&quot;font-size: 11px&quot;&gt;&lt;font color=&quot;#E6E6E6&quot;&gt;%c4Description%&lt;/font&gt;&lt;/div&gt;" id="AJG7Gfzm2Z9j25c4P1MB-12">
          <mxCell style="rounded=1;whiteSpace=wrap;html=1;fontSize=11;labelBackgroundColor=none;fillColor=#23A2D9;fontColor=#ffffff;align=center;arcSize=10;strokeColor=#0E7DAD;metaEdit=1;resizable=0;points=[[0.25,0,0],[0.5,0,0],[0.75,0,0],[1,0.25,0],[1,0.5,0],[1,0.75,0],[0.75,1,0],[0.5,1,0],[0.25,1,0],[0,0.75,0],[0,0.5,0],[0,0.25,0]];" parent="1" vertex="1">
            <mxGeometry x="310" y="600" width="240" height="120" as="geometry" />
          </mxCell>
        </object>
        <object placeholders="1" c4Type="База данных" c4Container="DB" c4Technology="PostgreSQL 12" c4Description="Хранит связь пользователей с настройками оповещений" label="&lt;font style=&quot;font-size: 16px&quot;&gt;&lt;b&gt;%c4Type%&lt;/b&gt;&lt;/font&gt;&lt;div&gt;[%c4Container%:&amp;nbsp;%c4Technology%]&lt;/div&gt;&lt;br&gt;&lt;div&gt;&lt;font style=&quot;font-size: 11px&quot;&gt;&lt;font color=&quot;#E6E6E6&quot;&gt;%c4Description%&lt;/font&gt;&lt;/div&gt;" id="AJG7Gfzm2Z9j25c4P1MB-13">
          <mxCell style="shape=cylinder3;size=15;whiteSpace=wrap;html=1;boundedLbl=1;rounded=0;labelBackgroundColor=none;fillColor=#23A2D9;fontSize=12;fontColor=#ffffff;align=center;strokeColor=#0E7DAD;metaEdit=1;points=[[0.5,0,0],[1,0.25,0],[1,0.5,0],[1,0.75,0],[0.5,1,0],[0,0.75,0],[0,0.5,0],[0,0.25,0]];resizable=0;" parent="1" vertex="1">
            <mxGeometry x="790" y="600" width="240" height="120" as="geometry" />
          </mxCell>
        </object>
        <mxCell id="AJG7Gfzm2Z9j25c4P1MB-17" style="edgeStyle=orthogonalEdgeStyle;rounded=0;orthogonalLoop=1;jettySize=auto;html=1;dashed=1;dashPattern=12 12;" parent="1" source="AJG7Gfzm2Z9j25c4P1MB-12" target="AJG7Gfzm2Z9j25c4P1MB-13" edge="1">
          <mxGeometry relative="1" as="geometry">
            <mxPoint x="409" y="910" as="targetPoint" />
          </mxGeometry>
        </mxCell>
        <mxCell id="AJG7Gfzm2Z9j25c4P1MB-18" value="Читает информацию о &lt;br&gt;настройках пользователей, &lt;br&gt;записывает настройки" style="edgeLabel;html=1;align=center;verticalAlign=middle;resizable=0;points=[];" parent="AJG7Gfzm2Z9j25c4P1MB-17" vertex="1" connectable="0">
          <mxGeometry x="-0.2133" y="-1" relative="1" as="geometry">
            <mxPoint x="35" y="-1" as="offset" />
          </mxGeometry>
        </mxCell>
        <object placeholders="1" c4Type="Брокер сообщений" c4Container="Container" c4Technology="Apache Kafka" c4Description="Хранит очередь оповещений" label="&lt;font style=&quot;font-size: 16px&quot;&gt;&lt;b&gt;%c4Type%&lt;/b&gt;&lt;/font&gt;&lt;div&gt;[%c4Container%:&amp;nbsp;%c4Technology%]&lt;/div&gt;&lt;br&gt;&lt;div&gt;&lt;font style=&quot;font-size: 11px&quot;&gt;&lt;font color=&quot;#E6E6E6&quot;&gt;%c4Description%&lt;/font&gt;&lt;/div&gt;" id="AJG7Gfzm2Z9j25c4P1MB-19">
          <mxCell style="shape=cylinder3;size=15;direction=south;whiteSpace=wrap;html=1;boundedLbl=1;rounded=0;labelBackgroundColor=none;fillColor=#23A2D9;fontSize=12;fontColor=#ffffff;align=center;strokeColor=#0E7DAD;metaEdit=1;points=[[0.5,0,0],[1,0.25,0],[1,0.5,0],[1,0.75,0],[0.5,1,0],[0,0.75,0],[0,0.5,0],[0,0.25,0]];resizable=0;" parent="1" vertex="1">
            <mxGeometry x="310" y="820" width="240" height="120" as="geometry" />
          </mxCell>
        </object>
        <object placeholders="1" c4Name="Email адаптер" c4Type="Container" c4Technology="SpringBoot" c4Description="Отправляет Email" label="&lt;font style=&quot;font-size: 16px&quot;&gt;&lt;b&gt;%c4Name%&lt;/b&gt;&lt;/font&gt;&lt;div&gt;[%c4Type%: %c4Technology%]&lt;/div&gt;&lt;br&gt;&lt;div&gt;&lt;font style=&quot;font-size: 11px&quot;&gt;&lt;font color=&quot;#E6E6E6&quot;&gt;%c4Description%&lt;/font&gt;&lt;/div&gt;" id="AJG7Gfzm2Z9j25c4P1MB-21">
          <mxCell style="rounded=1;whiteSpace=wrap;html=1;fontSize=11;labelBackgroundColor=none;fillColor=#23A2D9;fontColor=#ffffff;align=center;arcSize=10;strokeColor=#0E7DAD;metaEdit=1;resizable=0;points=[[0.25,0,0],[0.5,0,0],[0.75,0,0],[1,0.25,0],[1,0.5,0],[1,0.75,0],[0.75,1,0],[0.5,1,0],[0.25,1,0],[0,0.75,0],[0,0.5,0],[0,0.25,0]];" parent="1" vertex="1">
            <mxGeometry x="-60" y="1080" width="240" height="120" as="geometry" />
          </mxCell>
        </object>
        <mxCell id="AJG7Gfzm2Z9j25c4P1MB-33" style="edgeStyle=orthogonalEdgeStyle;rounded=0;orthogonalLoop=1;jettySize=auto;html=1;dashed=1;dashPattern=12 12;entryX=1;entryY=0.5;entryDx=0;entryDy=0;entryPerimeter=0;" parent="1" source="AJG7Gfzm2Z9j25c4P1MB-22" target="AJG7Gfzm2Z9j25c4P1MB-19" edge="1">
          <mxGeometry relative="1" as="geometry">
            <mxPoint x="430" y="1010" as="targetPoint" />
          </mxGeometry>
        </mxCell>
        <mxCell id="AJG7Gfzm2Z9j25c4P1MB-34" value="Читает топик с &lt;br&gt;SMS сообещниями" style="edgeLabel;html=1;align=center;verticalAlign=middle;resizable=0;points=[];" parent="AJG7Gfzm2Z9j25c4P1MB-33" vertex="1" connectable="0">
          <mxGeometry x="0.144" y="-1" relative="1" as="geometry">
            <mxPoint x="-1" y="10" as="offset" />
          </mxGeometry>
        </mxCell>
        <object placeholders="1" c4Name="SMS адаптер" c4Type="Container" c4Technology="SpringBoot" c4Description="Отправляет SMS" label="&lt;font style=&quot;font-size: 16px&quot;&gt;&lt;b&gt;%c4Name%&lt;/b&gt;&lt;/font&gt;&lt;div&gt;[%c4Type%: %c4Technology%]&lt;/div&gt;&lt;br&gt;&lt;div&gt;&lt;font style=&quot;font-size: 11px&quot;&gt;&lt;font color=&quot;#E6E6E6&quot;&gt;%c4Description%&lt;/font&gt;&lt;/div&gt;" id="AJG7Gfzm2Z9j25c4P1MB-22">
          <mxCell style="rounded=1;whiteSpace=wrap;html=1;fontSize=11;labelBackgroundColor=none;fillColor=#23A2D9;fontColor=#ffffff;align=center;arcSize=10;strokeColor=#0E7DAD;metaEdit=1;resizable=0;points=[[0.25,0,0],[0.5,0,0],[0.75,0,0],[1,0.25,0],[1,0.5,0],[1,0.75,0],[0.75,1,0],[0.5,1,0],[0.25,1,0],[0,0.75,0],[0,0.5,0],[0,0.25,0]];" parent="1" vertex="1">
            <mxGeometry x="310" y="1080" width="240" height="120" as="geometry" />
          </mxCell>
        </object>
        <mxCell id="AJG7Gfzm2Z9j25c4P1MB-39" style="rounded=0;orthogonalLoop=1;jettySize=auto;html=1;dashed=1;dashPattern=12 12;entryX=0.696;entryY=0.142;entryDx=0;entryDy=0;entryPerimeter=0;" parent="1" source="AJG7Gfzm2Z9j25c4P1MB-23" target="AJG7Gfzm2Z9j25c4P1MB-9" edge="1">
          <mxGeometry relative="1" as="geometry" />
        </mxCell>
        <mxCell id="AJG7Gfzm2Z9j25c4P1MB-40" value="Отправляет Push уведомление" style="edgeLabel;html=1;align=center;verticalAlign=middle;resizable=0;points=[];" parent="AJG7Gfzm2Z9j25c4P1MB-39" vertex="1" connectable="0">
          <mxGeometry x="-0.0898" y="-2" relative="1" as="geometry">
            <mxPoint as="offset" />
          </mxGeometry>
        </mxCell>
        <object placeholders="1" c4Name="Push адаптер" c4Type="Container" c4Technology="SpringBoot" c4Description="Отправляет Push" label="&lt;font style=&quot;font-size: 16px&quot;&gt;&lt;b&gt;%c4Name%&lt;/b&gt;&lt;/font&gt;&lt;div&gt;[%c4Type%: %c4Technology%]&lt;/div&gt;&lt;br&gt;&lt;div&gt;&lt;font style=&quot;font-size: 11px&quot;&gt;&lt;font color=&quot;#E6E6E6&quot;&gt;%c4Description%&lt;/font&gt;&lt;/div&gt;" id="AJG7Gfzm2Z9j25c4P1MB-23">
          <mxCell style="rounded=1;whiteSpace=wrap;html=1;fontSize=11;labelBackgroundColor=none;fillColor=#23A2D9;fontColor=#ffffff;align=center;arcSize=10;strokeColor=#0E7DAD;metaEdit=1;resizable=0;points=[[0.25,0,0],[0.5,0,0],[0.75,0,0],[1,0.25,0],[1,0.5,0],[1,0.75,0],[0.75,1,0],[0.5,1,0],[0.25,1,0],[0,0.75,0],[0,0.5,0],[0,0.25,0]];" parent="1" vertex="1">
            <mxGeometry x="680" y="1080" width="240" height="120" as="geometry" />
          </mxCell>
        </object>
        <mxCell id="AJG7Gfzm2Z9j25c4P1MB-35" style="edgeStyle=orthogonalEdgeStyle;rounded=0;orthogonalLoop=1;jettySize=auto;html=1;entryX=0.5;entryY=1;entryDx=0;entryDy=0;entryPerimeter=0;dashed=1;dashPattern=12 12;exitX=0.483;exitY=0;exitDx=0;exitDy=0;exitPerimeter=0;" parent="1" source="AJG7Gfzm2Z9j25c4P1MB-21" target="AJG7Gfzm2Z9j25c4P1MB-19" edge="1">
          <mxGeometry relative="1" as="geometry" />
        </mxCell>
        <mxCell id="AJG7Gfzm2Z9j25c4P1MB-36" value="Читает топик с &lt;br&gt;Email сообщениями" style="edgeLabel;html=1;align=center;verticalAlign=middle;resizable=0;points=[];" parent="AJG7Gfzm2Z9j25c4P1MB-35" vertex="1" connectable="0">
          <mxGeometry x="-0.4389" y="2" relative="1" as="geometry">
            <mxPoint y="47" as="offset" />
          </mxGeometry>
        </mxCell>
        <mxCell id="AJG7Gfzm2Z9j25c4P1MB-37" style="edgeStyle=orthogonalEdgeStyle;rounded=0;orthogonalLoop=1;jettySize=auto;html=1;entryX=0.5;entryY=0;entryDx=0;entryDy=0;entryPerimeter=0;dashed=1;dashPattern=12 12;" parent="1" source="AJG7Gfzm2Z9j25c4P1MB-23" target="AJG7Gfzm2Z9j25c4P1MB-19" edge="1">
          <mxGeometry relative="1" as="geometry">
            <mxPoint x="810" y="1190" as="sourcePoint" />
            <Array as="points">
              <mxPoint x="810" y="880" />
            </Array>
          </mxGeometry>
        </mxCell>
        <mxCell id="AJG7Gfzm2Z9j25c4P1MB-38" value="Читает топик с &lt;br&gt;Push сообщениями" style="edgeLabel;html=1;align=center;verticalAlign=middle;resizable=0;points=[];" parent="AJG7Gfzm2Z9j25c4P1MB-37" vertex="1" connectable="0">
          <mxGeometry x="-0.4979" y="-1" relative="1" as="geometry">
            <mxPoint y="35" as="offset" />
          </mxGeometry>
        </mxCell>
        <mxCell id="AJG7Gfzm2Z9j25c4P1MB-41" style="rounded=0;orthogonalLoop=1;jettySize=auto;html=1;dashed=1;dashPattern=12 12;entryX=0.523;entryY=-0.015;entryDx=0;entryDy=0;entryPerimeter=0;exitX=0.5;exitY=1;exitDx=0;exitDy=0;exitPerimeter=0;" parent="1" source="AJG7Gfzm2Z9j25c4P1MB-22" target="AJG7Gfzm2Z9j25c4P1MB-9" edge="1">
          <mxGeometry relative="1" as="geometry">
            <mxPoint x="740" y="1320" as="sourcePoint" />
            <mxPoint x="479" y="1546" as="targetPoint" />
          </mxGeometry>
        </mxCell>
        <mxCell id="AJG7Gfzm2Z9j25c4P1MB-42" value="Отправляет SMS уведомление" style="edgeLabel;html=1;align=center;verticalAlign=middle;resizable=0;points=[];" parent="AJG7Gfzm2Z9j25c4P1MB-41" vertex="1" connectable="0">
          <mxGeometry x="-0.0898" y="-2" relative="1" as="geometry">
            <mxPoint as="offset" />
          </mxGeometry>
        </mxCell>
        <mxCell id="AJG7Gfzm2Z9j25c4P1MB-44" style="rounded=0;orthogonalLoop=1;jettySize=auto;html=1;dashed=1;dashPattern=12 12;entryX=0.296;entryY=0.157;entryDx=0;entryDy=0;entryPerimeter=0;exitX=0.5;exitY=1;exitDx=0;exitDy=0;exitPerimeter=0;" parent="1" source="AJG7Gfzm2Z9j25c4P1MB-21" target="AJG7Gfzm2Z9j25c4P1MB-9" edge="1">
          <mxGeometry relative="1" as="geometry">
            <mxPoint x="440" y="1320" as="sourcePoint" />
            <mxPoint x="445" y="1517" as="targetPoint" />
          </mxGeometry>
        </mxCell>
        <mxCell id="AJG7Gfzm2Z9j25c4P1MB-45" value="Отправляет Email уведомление" style="edgeLabel;html=1;align=center;verticalAlign=middle;resizable=0;points=[];" parent="AJG7Gfzm2Z9j25c4P1MB-44" vertex="1" connectable="0">
          <mxGeometry x="-0.0898" y="-2" relative="1" as="geometry">
            <mxPoint as="offset" />
          </mxGeometry>
        </mxCell>
        <object placeholders="1" c4Name="Подсистема отправки оповещений о событиях" c4Type="SystemScopeBoundary" c4Application="Software System" label="&lt;font style=&quot;font-size: 16px&quot;&gt;&lt;b&gt;&lt;div style=&quot;text-align: left&quot;&gt;%c4Name%&lt;/div&gt;&lt;/b&gt;&lt;/font&gt;&lt;div style=&quot;text-align: left&quot;&gt;[%c4Application%]&lt;/div&gt;" id="Rj7wS1LZBO81cBKAN2o7-1">
          <mxCell style="rounded=1;fontSize=11;whiteSpace=wrap;html=1;dashed=1;arcSize=20;fillColor=none;strokeColor=#666666;fontColor=#333333;labelBackgroundColor=none;align=left;verticalAlign=bottom;labelBorderColor=none;spacingTop=0;spacing=10;dashPattern=8 4;metaEdit=1;rotatable=0;perimeter=rectanglePerimeter;noLabel=0;labelPadding=0;allowArrows=0;connectable=0;expand=0;recursiveResize=0;editable=1;pointerEvents=0;absoluteArcSize=1;points=[[0.25,0,0],[0.5,0,0],[0.75,0,0],[1,0.25,0],[1,0.5,0],[1,0.75,0],[0.75,1,0],[0.5,1,0],[0.25,1,0],[0,0.75,0],[0,0.5,0],[0,0.25,0]];" parent="1" vertex="1">
            <mxGeometry x="-80" y="560" width="1130" height="850" as="geometry" />
          </mxCell>
        </object>
      </root>
    </mxGraphModel>
  </diagram>
</mxfile>
